<svg width="13" height="25" viewBox="0 0 13 25" fill="none" xmlns="http://www.w3.org/2000/svg">
<path d="M12.1748 0.00520167L9.14038 0C5.73127 0 3.52815 2.41488 3.52815 6.15253V8.98926H0.477139C0.213495 8.98926 0 9.21761 0 9.49929V13.6094C0 13.8911 0.21374 14.1192 0.477139 14.1192H3.52815V24.4903C3.52815 24.7719 3.74165 25 4.00529 25H7.98599C8.24963 25 8.46313 24.7717 8.46313 24.4903V14.1192H12.0305C12.2941 14.1192 12.5076 13.8911 12.5076 13.6094L12.5091 9.49929C12.5091 9.36404 12.4587 9.23453 12.3693 9.13881C12.28 9.0431 12.1583 8.98926 12.0317 8.98926H8.46313V6.58453C8.46313 5.42872 8.72093 4.84197 10.1302 4.84197L12.1743 4.84119C12.4377 4.84119 12.6512 4.61283 12.6512 4.33143V0.514965C12.6512 0.233815 12.438 0.00572183 12.1748 0.00520167Z" fill="#D1D1D1"/>
</svg>
