<svg width="24" height="25" viewBox="0 0 24 25" fill="none" xmlns="http://www.w3.org/2000/svg">
<path fill-rule="evenodd" clip-rule="evenodd" d="M3.0132 10.06C3 10.5989 3 11.2108 3 11.9087V13.9087C3 16.7371 3 18.1513 3.87868 19.03C4.75736 19.9087 6.17157 19.9087 9 19.9087H15C17.8284 19.9087 19.2426 19.9087 20.1213 19.03C21 18.1513 21 16.7371 21 13.9087V11.9087C21 11.2108 21 10.5989 20.9868 10.06L12.9713 14.5131C12.3672 14.8486 11.6328 14.8486 11.0287 14.5131L3.0132 10.06ZM3.24297 7.9384C3.32584 7.95921 3.4074 7.99106 3.48564 8.03453L12 12.7647L20.5144 8.03453C20.5926 7.99106 20.6742 7.95921 20.757 7.9384C20.6271 7.46488 20.4276 7.0936 20.1213 6.78737C19.2426 5.90869 17.8284 5.90869 15 5.90869H9C6.17157 5.90869 4.75736 5.90869 3.87868 6.78737C3.57245 7.0936 3.37294 7.46488 3.24297 7.9384Z" fill="#A0A0A0"/>
</svg>
