<svg width="24" height="25" viewBox="0 0 24 25" fill="none" xmlns="http://www.w3.org/2000/svg">
<path d="M6.67954 4.22892L7.29281 3.61565C7.68334 3.22512 8.3165 3.22512 8.70703 3.61565L11.2928 6.20143C11.6833 6.59196 11.6833 7.22512 11.2928 7.61565L9.5004 9.40806C9.20152 9.70694 9.12742 10.1635 9.31645 10.5416C10.4092 12.7271 12.1813 14.4992 14.3668 15.592C14.7449 15.781 15.2015 15.7069 15.5004 15.408L17.2928 13.6156C17.6833 13.2251 18.3165 13.2251 18.707 13.6156L21.2928 16.2014C21.6833 16.5919 21.6833 17.2251 21.2928 17.6156L20.6795 18.2289C18.5682 20.3402 15.2256 20.5778 12.8369 18.7862L11.6285 17.8799C9.88496 16.5723 8.33614 15.0235 7.02849 13.2799L6.12218 12.0715C4.33064 9.68284 4.56819 6.34027 6.67954 4.22892Z" fill="#A0A0A0"/>
</svg>
