<svg width="24" height="25" viewBox="0 0 24 25" fill="none" xmlns="http://www.w3.org/2000/svg">
<path fill-rule="evenodd" clip-rule="evenodd" d="M12.398 18.7127C13.881 17.9435 19 14.925 19 9.90869C19 6.0427 15.866 2.90869 12 2.90869C8.13401 2.90869 5 6.0427 5 9.90869C5 14.925 10.119 17.9435 11.602 18.7127C11.8548 18.8438 12.1452 18.8438 12.398 18.7127ZM12 12.9087C13.6569 12.9087 15 11.5656 15 9.90869C15 8.25184 13.6569 6.90869 12 6.90869C10.3431 6.90869 9 8.25184 9 9.90869C9 11.5656 10.3431 12.9087 12 12.9087Z" fill="#A0A0A0"/>
<path d="M18.0622 17.4087C18.6766 17.8648 19 18.3821 19 18.9087C19 19.4353 18.6766 19.9526 18.0622 20.4087C17.4478 20.8648 16.5641 21.2435 15.5 21.5068C14.4359 21.7701 13.2288 21.9087 12 21.9087C10.7712 21.9087 9.56414 21.7701 8.5 21.5068C7.43587 21.2435 6.5522 20.8648 5.93782 20.4087C5.32344 19.9526 5 19.4353 5 18.9087C5 18.3821 5.32344 17.8648 5.93782 17.4087" stroke="#A0A0A0" stroke-width="2" stroke-linecap="round"/>
</svg>
