<svg width="30" height="24" viewBox="0 0 30 24" fill="none" xmlns="http://www.w3.org/2000/svg">
<path d="M29.576 2.77774C28.458 3.26509 27.3396 3.56944 26.222 3.69168C27.4842 2.92419 28.3381 1.83992 28.7831 0.438955C27.6282 1.13323 26.3962 1.60822 25.086 1.86418C23.9316 0.621565 22.5132 0 20.8297 0C19.2189 0 17.8455 0.575544 16.7089 1.72688C15.573 2.87816 15.0049 4.26992 15.0049 5.90234C15.0049 6.34083 15.0529 6.79176 15.1492 7.25466C12.7687 7.13285 10.5356 6.52678 8.44952 5.43643C6.36359 4.34595 4.59329 2.89315 3.13864 1.07799C2.60963 1.99149 2.34504 2.98454 2.34504 4.05659C2.34504 5.06776 2.57944 6.00595 3.04856 6.87094C3.51736 7.73579 4.14869 8.43621 4.94221 8.97232C4.0043 8.93571 3.12668 8.6859 2.3093 8.22294V8.29603C2.3093 9.72152 2.75112 10.973 3.63466 12.0515C4.51832 13.1299 5.63348 13.8087 6.97988 14.089C6.47489 14.2229 5.96383 14.2899 5.44695 14.2899C5.11028 14.2899 4.74356 14.2595 4.34689 14.199C4.71956 15.3805 5.40488 16.3517 6.40262 17.1136C7.40055 17.8749 8.53068 18.2674 9.79308 18.2923C7.67721 19.9733 5.26674 20.8138 2.56169 20.8138C2.04463 20.8138 1.57589 20.7899 1.15503 20.741C3.86015 22.5072 6.84168 23.3904 10.0998 23.3904C12.1677 23.3904 14.1093 23.0587 15.9241 22.3946C17.7399 21.7309 19.2906 20.8414 20.5771 19.7264C21.8633 18.6118 22.9725 17.3296 23.9043 15.8799C24.8359 14.4301 25.53 12.9165 25.9872 11.3389C26.4439 9.76094 26.6723 8.18058 26.6723 6.59654C26.6723 6.25539 26.6663 5.99968 26.6542 5.82904C27.7967 4.98883 28.7704 3.97139 29.576 2.77774Z" fill="#D1D1D1"/>
</svg>
