<svg width="30" height="18" viewBox="0 0 30 18" fill="none" xmlns="http://www.w3.org/2000/svg">
<g clip-path="url(#clip0_328_7)">
<path d="M29.841 15.4579C29.8047 15.3796 29.7708 15.3147 29.7393 15.2627C29.2188 14.3253 28.2241 13.1746 26.7559 11.8105L26.7249 11.7792L26.7094 11.7639L26.6937 11.7482H26.6779C26.0115 11.113 25.5896 10.6859 25.4128 10.4672C25.0896 10.0506 25.0172 9.62899 25.1939 9.20178C25.3187 8.87899 25.7877 8.19732 26.5997 7.15584C27.0267 6.60387 27.365 6.1615 27.6149 5.82822C29.4165 3.43306 30.1976 1.90252 29.9579 1.23602L29.8649 1.08026C29.8023 0.986489 29.6409 0.900705 29.3808 0.822471C29.1203 0.744402 28.7871 0.731492 28.3809 0.783519L23.8825 0.814593C23.8096 0.78877 23.7055 0.791178 23.5701 0.822471C23.4347 0.853764 23.3668 0.869466 23.3668 0.869466L23.2885 0.908583L23.2264 0.955578C23.1744 0.986652 23.1171 1.04131 23.0546 1.11943C22.9923 1.19728 22.9404 1.28864 22.8987 1.39276C22.409 2.65275 21.8521 3.82423 21.2272 4.90715C20.8419 5.55287 20.4881 6.11248 20.165 6.58632C19.8421 7.05999 19.5714 7.40897 19.3528 7.63268C19.134 7.8566 18.9366 8.03599 18.7591 8.1715C18.5821 8.30707 18.447 8.36435 18.3533 8.34339C18.2595 8.32245 18.1712 8.30166 18.0875 8.28087C17.9418 8.18709 17.8246 8.05958 17.7363 7.89818C17.6475 7.73679 17.5878 7.53366 17.5566 7.28894C17.5254 7.04406 17.5071 6.83343 17.5019 6.65634C17.4969 6.47948 17.4991 6.22929 17.5098 5.90651C17.5206 5.58356 17.5254 5.36505 17.5254 5.25049C17.5254 4.85473 17.5332 4.42521 17.5486 3.96183C17.5644 3.49844 17.5772 3.13129 17.5878 2.86082C17.5984 2.59005 17.6034 2.30361 17.6034 2.00162C17.6034 1.69962 17.5849 1.46278 17.5486 1.29089C17.5128 1.11921 17.4578 0.952569 17.3852 0.791013C17.3121 0.629624 17.2052 0.504777 17.0649 0.416149C16.9244 0.32763 16.7496 0.257383 16.5417 0.205193C15.9897 0.0802919 15.2868 0.0127266 14.4328 0.00222248C12.496 -0.0185668 11.2516 0.106497 10.6997 0.377252C10.481 0.491647 10.2831 0.64795 10.1062 0.845667C9.9187 1.07484 9.89256 1.19991 10.0279 1.22048C10.6528 1.31409 11.0952 1.53801 11.3555 1.89202L11.4494 2.07963C11.5223 2.21498 11.5952 2.4546 11.6681 2.79818C11.7409 3.14174 11.7879 3.52181 11.8086 3.93813C11.8606 4.69842 11.8606 5.34924 11.8086 5.89064C11.7565 6.43225 11.7072 6.85389 11.6602 7.15588C11.6133 7.45788 11.543 7.70259 11.4494 7.88997C11.3555 8.07741 11.2931 8.19197 11.2618 8.23355C11.2306 8.27512 11.2045 8.30133 11.1839 8.31161C11.0485 8.36347 10.9077 8.3899 10.762 8.3899C10.6161 8.3899 10.4392 8.31692 10.231 8.17107C10.0228 8.02521 9.80678 7.82487 9.58284 7.56971C9.35892 7.3145 9.10639 6.95784 8.82513 6.49971C8.54409 6.04158 8.25249 5.50012 7.9505 4.87536L7.70064 4.42226C7.54445 4.13076 7.33109 3.70634 7.06034 3.14934C6.78942 2.59213 6.54996 2.05314 6.34179 1.53247C6.25857 1.31381 6.13356 1.14733 5.96698 1.03277L5.8888 0.985777C5.83683 0.944199 5.7534 0.900048 5.63895 0.852999C5.52433 0.806004 5.40474 0.772303 5.27967 0.751567L0.999858 0.782643C0.562516 0.782643 0.265776 0.881721 0.109527 1.0796L0.0469949 1.17321C0.0157562 1.22535 0 1.30861 0 1.42323C0 1.53778 0.0312387 1.6784 0.0937709 1.84487C0.718545 3.31326 1.39797 4.72939 2.13206 6.09349C2.86614 7.45761 3.50404 8.55643 4.04538 9.38899C4.58683 10.2222 5.13874 11.0085 5.7011 11.7476C6.26344 12.487 6.63568 12.9608 6.81781 13.169C7.00015 13.3775 7.14337 13.5335 7.24749 13.6376L7.63806 14.0124C7.88798 14.2623 8.25495 14.5617 8.73918 14.9105C9.22351 15.2595 9.75972 15.603 10.3481 15.9417C10.9365 16.2799 11.6211 16.5558 12.4021 16.7692C13.1831 16.9828 13.9432 17.0686 14.6826 17.0272H16.479C16.8432 16.9957 17.1192 16.8813 17.3069 16.6836L17.3689 16.6053C17.4108 16.5431 17.4499 16.4466 17.486 16.3165C17.5226 16.1865 17.5407 16.0431 17.5407 15.8871C17.5301 15.4394 17.5641 15.0358 17.6421 14.6767C17.7199 14.3176 17.8086 14.0468 17.9079 13.8645C18.007 13.6823 18.1189 13.5286 18.2436 13.404C18.3684 13.2791 18.4573 13.2034 18.5096 13.1773C18.5614 13.1511 18.6028 13.1334 18.6341 13.1227C18.8839 13.0394 19.1781 13.1201 19.5168 13.365C19.8554 13.6097 20.1729 13.9119 20.4697 14.271C20.7666 14.6304 21.1231 15.0337 21.5396 15.4813C21.9564 15.9292 22.3207 16.2621 22.6329 16.4811L22.9452 16.6686C23.1538 16.7936 23.4246 16.9081 23.7579 17.0123C24.0906 17.1164 24.382 17.1425 24.6322 17.0904L28.6308 17.028C29.0264 17.028 29.334 16.9625 29.5522 16.8326C29.7711 16.7023 29.901 16.559 29.9429 16.4031C29.9847 16.247 29.9869 16.0698 29.9508 15.8717C29.9137 15.6741 29.8773 15.5359 29.841 15.4579Z" fill="#D1D1D1"/>
</g>
<defs>
<clipPath id="clip0_328_7">
<rect width="30" height="18" fill="white"/>
</clipPath>
</defs>
</svg>
