<svg width="30" height="22" viewBox="0 0 30 22" fill="none" xmlns="http://www.w3.org/2000/svg">
<path d="M28.8306 1.8037C27.7478 0.522579 25.7484 0 21.9302 0H8.06962C4.16391 0 2.13068 0.556287 1.05184 1.92022C0 3.25008 0 5.20951 0 7.9214V13.0903C0 18.3441 1.248 21.0116 8.06962 21.0116H21.9302C25.2414 21.0116 27.0763 20.5505 28.2633 19.4199C29.4807 18.2605 30 16.3675 30 13.0903V7.9214C30 5.06148 29.9187 3.0905 28.8306 1.8037ZM19.2602 11.2194L12.9661 14.4931C12.8254 14.5663 12.6715 14.6026 12.5178 14.6026C12.3438 14.6026 12.1702 14.556 12.0165 14.4633C11.7269 14.2887 11.5501 13.9764 11.5501 13.6395V7.11317C11.5501 6.77685 11.7264 6.46481 12.0154 6.2901C12.3045 6.1154 12.664 6.10346 12.9639 6.25851L19.2579 9.51109C19.5782 9.67656 19.7792 10.0056 19.7796 10.3645C19.7801 10.7237 19.5799 11.0532 19.2602 11.2194Z" fill="#D1D1D1"/>
</svg>
