<svg width="32" height="32" viewBox="0 0 32 32" fill="none" xmlns="http://www.w3.org/2000/svg">
<path d="M16.0002 24.3334L5.3335 24.3334" stroke="#3F81FF" stroke-width="2" stroke-linecap="round"/>
<path d="M21.3333 24.3333C21.3333 22.8606 20.1394 21.6667 18.6667 21.6667C17.1939 21.6667 16 22.8606 16 24.3333C16 25.8061 17.1939 27 18.6667 27C20.1394 27 21.3333 25.8061 21.3333 24.3333Z" stroke="#3F81FF" stroke-width="2" stroke-linecap="round"/>
<path d="M26.6666 24.3334L21.3333 24.3334" stroke="#3F81FF" stroke-width="2" stroke-linecap="round"/>
<path d="M9.33325 16L5.33325 16" stroke="#3F81FF" stroke-width="2" stroke-linecap="round"/>
<path d="M14.6668 16C14.6668 14.5272 13.4729 13.3333 12.0002 13.3333C10.5274 13.3333 9.3335 14.5272 9.3335 16C9.3335 17.4727 10.5274 18.6666 12.0002 18.6666C13.4729 18.6666 14.6668 17.4727 14.6668 16Z" stroke="#3F81FF" stroke-width="2" stroke-linecap="round"/>
<path d="M26.6667 16L16 16" stroke="#3F81FF" stroke-width="2" stroke-linecap="round"/>
<path d="M26.6667 7.66663L24 7.66663" stroke="#3F81FF" stroke-width="2" stroke-linecap="round"/>
<path d="M22.6666 7.66671C22.6666 6.19395 21.4727 5.00004 19.9999 5.00004C18.5272 5.00004 17.3333 6.19395 17.3333 7.66671C17.3333 9.13947 18.5272 10.3334 19.9999 10.3334C21.4727 10.3334 22.6666 9.13947 22.6666 7.66671Z" stroke="#3F81FF" stroke-width="2" stroke-linecap="round"/>
<path d="M15.9999 7.66663L5.33325 7.66663" stroke="#3F81FF" stroke-width="2" stroke-linecap="round"/>
</svg>
